<?xml version="1.0" standalone="no"?>
<!DOCTYPE svg PUBLIC "-//W3C//DTD SVG 20010904//EN"
 "http://www.w3.org/TR/2001/REC-SVG-20010904/DTD/svg10.dtd">
<svg version="1.0" xmlns="http://www.w3.org/2000/svg"
 width="364.000000pt" height="138.000000pt" viewBox="0 0 364.000000 138.000000"
 preserveAspectRatio="xMidYMid meet">

<g transform="translate(0.000000,138.000000) scale(0.100000,-0.100000)"
fill="#000000" stroke="none">
<path d="M720 739 c-63 -25 -77 -98 -36 -185 28 -61 60 -88 87 -73 27 14 70
93 76 139 7 53 -12 95 -52 114 -38 18 -41 18 -75 5z m91 -35 c34 -37 32 -98
-7 -161 -19 -30 -37 -48 -49 -48 -25 0 -71 76 -80 131 -5 35 -2 46 20 72 35
41 81 44 116 6z"/>
<path d="M718 699 c-39 -22 -12 -99 33 -99 39 0 59 19 59 55 0 48 -47 71 -92
44z m70 -11 c28 -28 7 -78 -33 -78 -40 0 -61 50 -33 78 7 7 21 12 33 12 12 0
26 -5 33 -12z"/>
<path d="M1170 719 c-15 -27 -9 -59 13 -73 14 -9 21 -8 30 4 11 14 14 14 30
-2 14 -15 14 -18 2 -18 -8 0 -15 -4 -15 -10 0 -5 9 -10 20 -10 25 0 42 32 38
73 -2 24 -8 33 -25 35 -13 2 -23 -1 -23 -7 0 -19 -17 -12 -23 9 -7 26 -33 26
-47 -1z m27 -41 c-3 -7 -5 -2 -5 12 0 14 2 19 5 13 2 -7 2 -19 0 -25z"/>
<path d="M1290 731 c0 -6 5 -13 10 -16 6 -3 10 1 10 9 0 9 -4 16 -10 16 -5 0
-10 -4 -10 -9z"/>
<path d="M1327 733 c-9 -19 -8 -83 2 -83 6 0 11 20 11 45 0 42 -4 55 -13 38z"/>
<path d="M1411 727 c0 -10 -7 -17 -13 -16 -40 5 -48 -1 -48 -36 0 -19 5 -35
10 -35 6 0 10 11 10 25 0 16 6 25 15 25 8 0 15 -9 15 -19 0 -11 5 -23 10 -26
6 -3 10 -1 10 6 0 9 3 9 14 0 12 -10 15 -7 19 16 l4 28 2 -27 c1 -33 21 -38
22 -5 0 14 2 17 6 7 3 -8 12 -21 21 -27 14 -12 14 -13 -1 -13 -9 0 -17 -4 -17
-10 0 -22 40 -9 54 18 8 15 15 22 16 16 0 -6 20 -10 48 -10 42 1 48 4 53 26
l7 25 1 -27 c1 -30 21 -40 21 -11 0 15 1 15 14 -2 12 -17 13 -17 17 6 3 13 2
38 -1 54 -6 30 -6 30 -13 5 -5 -18 -9 -22 -16 -12 -6 10 -24 12 -65 8 -48 -4
-57 -3 -52 9 3 8 1 15 -4 15 -6 0 -10 -12 -10 -27 -1 -24 -2 -25 -11 -10 -12
20 -45 23 -52 5 -4 -10 -8 -10 -15 1 -6 8 -20 12 -35 9 -18 -4 -27 0 -30 11
-4 13 -5 13 -6 -2z m183 -52 c-4 -8 -8 -15 -10 -15 -2 0 -4 7 -4 15 0 8 4 15
10 15 5 0 7 -7 4 -15z m42 -12 c-10 -10 -19 5 -10 18 6 11 8 11 12 0 2 -7 1
-15 -2 -18z"/>
<path d="M2010 718 c0 -17 -3 -19 -12 -10 -16 16 -45 15 -52 0 -5 -10 -7 -10
-12 0 -3 6 -17 12 -30 12 -19 0 -24 -5 -24 -25 0 -14 -4 -25 -9 -25 -4 0 -6
11 -3 25 3 18 0 25 -11 25 -9 0 -19 -5 -22 -10 -5 -8 -11 -7 -21 1 -11 9 -16
6 -23 -12 -7 -18 -10 -19 -10 -6 -1 27 -21 20 -21 -8 0 -17 7 -28 23 -34 l22
-9 -25 -10 c-22 -9 -23 -11 -7 -17 22 -9 47 11 47 38 0 20 0 20 14 2 11 -16
17 -17 29 -7 12 11 17 10 23 0 6 -9 11 -4 15 17 l7 30 1 -27 c1 -28 17 -39 23
-15 2 9 8 8 21 -5 14 -15 14 -18 2 -18 -8 0 -15 -4 -15 -10 0 -22 40 -9 54 18
9 15 16 20 16 12 0 -12 4 -11 15 4 13 17 15 18 15 3 0 -9 5 -17 10 -17 6 0 10
23 10 50 0 28 -4 50 -10 50 -5 0 -10 -7 -10 -15 0 -8 -5 -15 -11 -15 -6 0 -9
7 -5 15 3 8 1 15 -4 15 -6 0 -10 -10 -10 -22z"/>
<path d="M2160 726 c0 -9 -8 -12 -25 -9 -31 7 -56 -37 -35 -62 7 -8 16 -12 21
-9 5 3 9 -4 9 -15 0 -41 20 -20 21 22 1 23 4 32 6 20 8 -40 23 -25 23 22 0 25
-4 45 -10 45 -5 0 -10 -6 -10 -14z m-34 -53 c-10 -10 -19 5 -10 18 6 11 8 11
12 0 2 -7 1 -15 -2 -18z"/>
<path d="M2198 734 c-12 -11 -10 -82 2 -89 6 -3 10 -1 10 6 0 9 3 9 14 0 15
-12 37 -11 47 2 7 9 39 -2 39 -13 0 -5 -8 -10 -17 -13 -17 -4 -17 -4 0 -12 23
-10 47 11 48 44 2 23 2 24 6 4 8 -42 23 -24 23 27 0 28 -4 50 -10 50 -5 0 -10
-10 -10 -21 0 -18 -2 -19 -15 -9 -12 10 -16 8 -24 -11 -7 -18 -10 -19 -10 -6
-1 19 -21 24 -21 5 0 -6 -6 -3 -14 7 -15 21 -51 13 -42 -10 3 -8 1 -17 -4 -20
-5 -3 -10 11 -12 31 -2 20 -6 32 -10 28z"/>
<path d="M2380 689 c0 -31 4 -48 10 -44 6 3 10 26 10 51 0 24 -4 44 -10 44 -5
0 -10 -23 -10 -51z"/>
<path d="M2410 688 c1 -47 2 -51 14 -35 11 15 15 15 19 3 5 -12 19 -14 47 -6
3 1 -5 5 -18 10 -19 8 -21 14 -16 37 7 25 6 27 -9 14 -15 -12 -17 -11 -17 8 0
11 -4 21 -10 21 -5 0 -10 -24 -10 -52z"/>
<path d="M3493 694 c-17 -9 -39 -32 -49 -52 -14 -30 -15 -43 -5 -87 11 -51 57
-135 81 -150 38 -23 120 66 120 129 -1 29 -2 27 -20 -18 -11 -27 -32 -62 -46
-78 l-28 -28 -24 23 c-34 31 -72 115 -72 160 0 98 128 134 174 49 13 -24 15
-24 16 -6 1 53 -88 88 -147 58z"/>
<path d="M3502 654 c-28 -19 -30 -74 -4 -97 63 -57 152 33 92 93 -24 24 -57
26 -88 4z m78 -14 c11 -11 20 -27 20 -35 0 -20 -36 -55 -57 -55 -23 0 -53 29
-53 52 0 22 34 58 55 58 8 0 24 -9 35 -20z"/>
<path d="M110 505 c-26 -28 -30 -70 -11 -128 14 -41 62 -90 82 -82 38 15 86
125 75 171 -16 64 -101 86 -146 39z m110 -5 c29 -29 26 -92 -5 -147 -31 -52
-52 -54 -84 -8 -34 51 -40 126 -12 154 27 27 75 27 101 1z"/>
<path d="M132 488 c-33 -33 6 -96 52 -84 29 7 45 49 29 75 -13 20 -64 26 -81
9z m76 -26 c4 -28 -14 -52 -38 -52 -26 0 -43 26 -36 55 6 22 11 26 39 23 25
-2 33 -8 35 -26z"/>
<path d="M3143 510 c-50 -20 -54 -94 -7 -150 l26 -30 -30 0 c-21 0 -38 -9 -56
-30 -22 -27 -25 -37 -19 -76 l6 -46 -85 46 c-156 85 -306 86 -457 4 -163 -88
-150 -83 -241 -83 -68 1 -94 5 -127 23 -39 20 -43 26 -43 61 0 21 -6 44 -14
50 -9 8 -92 11 -282 9 l-269 -3 -5 -45 c-5 -41 -9 -47 -50 -70 -38 -21 -58
-25 -130 -25 -80 0 -89 2 -155 39 -122 69 -158 85 -228 97 -68 12 -81 25 -52
49 24 20 18 32 -33 83 l-48 47 -93 0 -93 0 -39 -42 c-37 -42 -49 -80 -29 -93
6 -3 10 -37 10 -75 l0 -68 -42 -17 c-54 -21 -142 -30 -188 -18 -27 7 -36 15
-38 35 -3 24 -6 26 -42 21 -36 -5 -40 -3 -59 28 -28 46 -8 50 35 8 18 -18 36
-30 39 -28 2 3 -10 19 -28 36 -32 31 -33 31 -155 35 l-122 3 0 -143 c0 -143 0
-143 23 -140 20 3 22 9 25 73 3 63 5 71 27 82 15 6 27 7 31 2 7 -12 51 -12 59
1 4 6 13 5 25 -3 16 -9 24 -9 40 0 12 8 21 9 25 3 3 -6 15 -10 26 -10 17 0 19
-7 19 -75 l0 -75 1534 0 c1389 0 1534 1 1540 16 3 9 6 56 6 105 0 81 2 89 19
89 11 0 26 6 33 14 12 11 17 11 33 0 24 -18 49 -18 65 1 10 12 15 12 36 -2 20
-13 30 -14 49 -5 14 7 25 17 25 23 0 8 -4 8 -14 -1 -18 -14 -58 -10 -64 8 -2
8 9 12 37 12 48 0 52 12 21 62 -25 42 -25 52 0 45 11 -3 20 -1 20 4 0 5 -47 9
-104 9 l-104 0 -48 -56 -48 -57 17 -29 c9 -16 17 -35 17 -42 0 -13 -61 -46
-85 -46 -19 0 -21 80 -2 99 17 18 -52 81 -90 81 l-26 0 21 23 c46 49 53 107
17 142 -26 27 -30 28 -62 15z m68 -32 c15 -27 4 -77 -24 -112 l-24 -29 -20 29
c-27 39 -36 70 -29 100 11 44 76 52 97 12z m-2525 -44 c-3 -9 -9 -27 -12 -40
-5 -20 -13 -24 -41 -24 l-34 0 33 40 c33 40 66 54 54 24z m62 -26 c3 -38 3
-38 -33 -38 -30 0 -36 3 -31 16 3 9 9 27 12 40 5 18 12 24 28 22 16 -2 22 -11
24 -40z m50 15 c36 -52 36 -53 -2 -53 -35 0 -36 1 -36 40 0 47 11 51 38 13z
m77 -13 l39 -40 -35 0 c-31 0 -38 5 -58 40 -21 38 -21 40 -4 40 11 0 37 -18
58 -40z m2587 -45 c3 -3 0 -25 -7 -48 -11 -38 -15 -42 -49 -45 -20 -2 -36 0
-36 3 0 9 73 95 80 95 4 0 9 -2 12 -5z m74 -30 c9 -51 0 -65 -41 -65 -19 0
-35 3 -35 6 0 3 5 25 11 50 9 36 15 44 35 44 19 0 24 -7 30 -35z m67 -10 c15
-25 27 -48 27 -51 0 -3 -17 -4 -37 -2 -38 3 -38 3 -41 51 -4 61 14 62 51 2z
m-2945 23 c-7 -20 -58 -23 -58 -4 0 11 10 16 31 16 20 0 29 -4 27 -12z m90 0
c-3 -7 -17 -13 -33 -13 -16 0 -30 6 -32 13 -3 8 7 12 32 12 25 0 35 -4 33 -12z
m80 0 c-3 -7 -15 -13 -28 -13 -13 0 -25 6 -27 13 -3 8 6 12 27 12 21 0 30 -4
28 -12z m90 0 c-3 -7 -17 -13 -33 -13 -16 0 -30 6 -32 13 -3 8 7 12 32 12 25
0 35 -4 33 -12z m-228 -28 c12 -8 11 -10 -7 -10 -20 0 -23 -5 -23 -45 0 -34
-5 -47 -19 -55 -30 -15 -31 -14 -31 43 0 49 2 54 28 64 36 14 35 14 52 3z m90
0 c11 -7 6 -10 -20 -10 -26 0 -31 3 -20 10 8 5 17 10 20 10 3 0 12 -5 20 -10z
m103 -7 c24 -7 16 -27 -11 -31 -15 -2 -22 2 -22 12 0 10 -9 16 -22 16 -19 0
-20 2 -8 10 8 5 22 7 30 4 8 -4 23 -9 33 -11z m2238 -5 c0 -10 2 -10 6 0 9 22
33 13 33 -13 0 -18 -5 -25 -20 -25 -11 0 -20 6 -21 13 0 10 -2 10 -6 0 -2 -7
-13 -13 -24 -13 -18 0 -19 1 -3 25 18 27 34 33 35 13z m77 -13 c10 -22 9 -25
-8 -25 -15 0 -20 7 -20 25 0 14 4 25 8 25 5 0 14 -11 20 -25z m42 0 c23 -25
23 -25 2 -25 -18 0 -42 25 -42 44 0 13 18 4 40 -19z m-2502 -22 c-2 -12 -13
-18 -32 -18 -20 0 -30 5 -32 18 -2 13 5 17 33 17 27 0 34 -4 31 -17z m77 7
c-28 -12 -45 -12 -45 0 0 6 15 10 33 9 27 0 29 -2 12 -9z m-710 -37 c-9 -37
-18 -45 -45 -41 l-23 3 27 33 c34 40 51 42 41 5z m55 8 c0 -11 3 -26 6 -35 5
-13 -1 -16 -29 -16 l-35 0 11 35 c11 39 47 50 47 16z m58 -16 l22 -35 -29 0
c-21 0 -30 6 -35 23 -15 58 7 65 42 12z m1438 16 c-4 -5 -2 -11 3 -13 5 -1 11
-19 13 -38 3 -33 1 -35 -29 -38 -27 -3 -35 1 -44 22 -14 29 4 61 28 52 7 -3
13 1 13 9 0 8 5 15 11 15 5 0 8 -4 5 -9z m184 -1 c0 -4 -15 -7 -32 -7 -25 -1
-28 1 -13 6 24 10 45 10 45 1z m70 0 c0 -5 -5 -10 -11 -10 -5 0 -7 5 -4 10 3
6 8 10 11 10 2 0 4 -4 4 -10z m100 0 c0 -5 -2 -10 -4 -10 -3 0 -8 5 -11 10 -3
6 -1 10 4 10 6 0 11 -4 11 -10z m1090 0 c0 -5 -6 -10 -14 -10 -8 0 -18 5 -21
10 -3 6 3 10 14 10 12 0 21 -4 21 -10z m60 0 c0 -5 -7 -10 -16 -10 -24 0 -44
-25 -44 -55 0 -37 -24 -27 -28 12 -3 26 1 32 22 37 15 3 26 11 26 16 0 6 9 10
20 10 11 0 20 -4 20 -10z m55 0 c-3 -5 -12 -10 -20 -10 -8 0 -17 5 -20 10 -4
6 5 10 20 10 15 0 24 -4 20 -10z m55 0 c0 -5 -9 -10 -20 -10 -11 0 -20 5 -20
10 0 6 9 10 20 10 11 0 20 -4 20 -10z m168 -2 c-3 -7 -20 -13 -38 -13 -18 0
-35 6 -37 13 -3 8 8 12 37 12 29 0 40 -4 38 -12z m92 -4 c-15 -17 -61 -15 -68
4 -2 8 9 12 38 12 37 0 41 -2 30 -16z m-1763 0 c-3 -3 -12 -4 -19 -1 -8 3 -5
6 6 6 11 1 17 -2 13 -5z m1413 -14 c0 -13 27 -13 32 0 2 5 13 7 26 4 19 -5 22
-13 22 -50 0 -32 -4 -44 -15 -44 -11 0 -15 12 -16 43 -1 23 -3 34 -6 25 -3
-11 -14 -18 -29 -18 -16 0 -24 6 -25 18 -1 16 -2 16 -6 0 -3 -11 -14 -18 -29
-18 -32 0 -30 15 4 33 34 18 42 20 42 7z m-1285 -20 c-4 -6 -1 -17 5 -25 10
-12 9 -16 -4 -21 -9 -4 -20 -4 -23 0 -4 3 2 6 12 6 18 0 18 0 0 13 -18 14 -14
37 6 37 6 0 7 -5 4 -10z m-141 -16 c10 -25 7 -30 -14 -30 -11 0 -20 3 -20 7 0
15 12 39 20 39 4 0 11 -7 14 -16z m209 4 c11 2 17 -3 17 -17 0 -27 -40 -30
-41 -3 0 15 -1 14 -8 -2 -7 -19 -8 -19 -13 1 -7 25 0 35 16 25 6 -3 19 -5 29
-4z m-155 -21 c2 -10 -3 -17 -11 -17 -9 0 -18 -6 -20 -12 -3 -7 -6 2 -6 20 -1
27 3 33 16 30 10 -2 19 -11 21 -21z m47 12 c4 -6 -2 -19 -14 -30 l-21 -20 0
31 c0 30 21 42 35 19z m148 -9 c-3 -11 -7 -20 -9 -20 -2 0 -4 9 -4 20 0 11 4
20 9 20 5 0 7 -9 4 -20z m47 9 c0 -5 -5 -7 -12 -3 -8 5 -9 2 -5 -9 3 -10 2
-17 -3 -17 -13 0 -22 18 -15 30 8 13 35 13 35 -1z m-1962 -11 c-3 -7 -15 -13
-28 -13 -13 0 -25 6 -27 13 -3 8 6 12 27 12 21 0 30 -4 28 -12z m70 0 c-3 -7
-13 -13 -23 -13 -10 0 -20 6 -22 13 -3 7 5 12 22 12 17 0 25 -5 23 -12z m80 0
c-6 -17 -50 -17 -55 0 -3 8 6 12 27 12 21 0 30 -4 28 -12z m80 0 c-6 -17 -50
-17 -55 0 -3 8 6 12 27 12 21 0 30 -4 28 -12z m2842 -13 c0 -9 -9 -15 -25 -15
-16 0 -25 6 -25 15 0 9 9 15 25 15 16 0 25 -6 25 -15z m60 0 c0 -9 -9 -15 -25
-15 -16 0 -25 6 -25 15 0 9 9 15 25 15 16 0 25 -6 25 -15z"/>
<path d="M3135 480 c-4 -6 -4 -14 -1 -17 3 -4 6 -1 6 5 0 15 46 16 53 2 3 -6
4 -5 3 2 -3 17 -52 23 -61 8z"/>
<path d="M3130 441 c0 -10 19 -25 25 -20 1 2 -3 10 -11 17 -8 7 -14 8 -14 3z"/>
<path d="M3182 434 c-7 -8 -8 -14 -3 -14 10 0 25 19 20 25 -2 1 -10 -3 -17
-11z"/>
<path d="M1950 180 c0 -5 5 -10 10 -10 6 0 10 5 10 10 0 6 -4 10 -10 10 -5 0
-10 -4 -10 -10z"/>
<path d="M1780 180 c0 -5 5 -10 10 -10 6 0 10 5 10 10 0 6 -4 10 -10 10 -5 0
-10 -4 -10 -10z"/>
<path d="M1544 477 c-3 -8 -4 -45 -2 -83 l3 -69 269 -3 c190 -2 273 1 282 9
17 14 19 111 4 140 -10 18 -24 19 -281 19 -217 0 -271 -3 -275 -13z m116 -89
c0 -4 -8 -8 -17 -8 -9 0 -25 -7 -35 -17 -17 -15 -18 -14 -18 25 l0 42 35 -17
c19 -9 35 -20 35 -25z m57 25 c-10 -3 -17 -12 -15 -21 2 -8 8 -14 13 -13 6 2
9 6 8 10 -1 4 30 8 69 8 48 0 73 5 79 14 7 11 9 10 9 -3 0 -11 5 -15 14 -12
10 4 14 -1 13 -14 -1 -13 -7 -18 -18 -15 -9 3 -20 0 -23 -6 -4 -6 -14 -11 -23
-11 -14 0 -14 3 2 20 10 11 13 20 7 20 -7 0 -12 -5 -12 -12 0 -6 -3 -8 -7 -5
-3 4 -12 2 -19 -4 -8 -7 -14 -7 -19 1 -5 8 -10 8 -20 0 -10 -8 -15 -8 -20 0
-5 8 -11 8 -20 0 -17 -14 -45 -2 -45 19 0 22 9 31 29 30 12 -1 12 -2 -2 -6z
m253 -4 c0 -6 -7 -17 -15 -25 -13 -14 -15 -13 -15 10 0 16 6 26 15 26 8 0 15
-5 15 -11z m33 -17 c5 14 11 16 31 9 13 -6 27 -7 30 -4 12 13 5 -14 -9 -33
-14 -18 -14 -18 -15 5 0 23 -1 23 -13 7 -18 -25 -47 -11 -46 23 l1 26 7 -25
c6 -21 8 -22 14 -8z"/>
<path d="M1800 379 c0 -5 5 -7 10 -4 6 3 10 8 10 11 0 2 -4 4 -10 4 -5 0 -10
-5 -10 -11z"/>
<path d="M3438 130 l4 -70 99 0 c59 0 99 4 99 10 0 6 -18 10 -40 10 -33 0 -40
3 -40 20 0 17 7 20 40 20 26 0 40 5 40 13 0 9 -12 11 -40 9 -38 -4 -40 -3 -40
23 0 26 2 27 40 23 22 -2 40 0 40 4 0 5 -46 8 -102 8 l-103 0 3 -70z m92 35
c0 -22 -4 -25 -40 -25 -36 0 -40 3 -40 25 0 23 4 25 40 25 36 0 40 -2 40 -25z
m0 -65 c0 -17 -7 -20 -40 -20 -33 0 -40 3 -40 20 0 17 7 20 40 20 33 0 40 -3
40 -20z"/>
<path d="M90 85 l0 -56 83 3 82 3 3 53 3 52 -85 0 -86 0 0 -55z m70 25 c0 -16
-7 -20 -30 -20 -23 0 -30 4 -30 20 0 16 7 20 30 20 23 0 30 -4 30 -20z m80 0
c0 -16 -7 -20 -30 -20 -23 0 -30 4 -30 20 0 16 7 20 30 20 23 0 30 -4 30 -20z
m-80 -50 c0 -16 -7 -20 -30 -20 -23 0 -30 4 -30 20 0 16 7 20 30 20 23 0 30
-4 30 -20z m80 0 c0 -16 -7 -20 -30 -20 -23 0 -30 4 -30 20 0 16 7 20 30 20
23 0 30 -4 30 -20z"/>
</g>
</svg>
